<mxfile host="app.diagrams.net" agent="Mozilla/5.0 (Windows NT 10.0; Win64; x64) AppleWebKit/537.36 (KHTML, like Gecko) Chrome/128.0.0.0 Safari/537.36" version="24.7.8">
  <diagram name="Página-1" id="Cu5WFZRTZ1dmdq2uUhK_">
    <mxGraphModel dx="2491" dy="2454" grid="1" gridSize="10" guides="1" tooltips="1" connect="1" arrows="1" fold="1" page="1" pageScale="1" pageWidth="900" pageHeight="1600" math="0" shadow="0">
      <root>
        <mxCell id="0" />
        <mxCell id="1" parent="0" />
        <mxCell id="IuSi_ucjc667y65gIAW3-9" value="" style="rounded=0;whiteSpace=wrap;html=1;fillColor=#dae8fc;strokeColor=#6c8ebf;movable=0;resizable=0;rotatable=0;deletable=0;editable=0;locked=1;connectable=0;" parent="1" vertex="1">
          <mxGeometry y="-520" width="890" height="2530" as="geometry" />
        </mxCell>
        <mxCell id="g6yMPmIuiC17lhhZVRHr-4" value="&lt;h1 style=&quot;margin-top: 0px; font-size: 28px;&quot;&gt;Heading&lt;/h1&gt;&lt;p style=&quot;font-size: 28px;&quot;&gt;Lorem ipsum dolor sit amet, consectetur adipisicing elit, sed do eiusmod tempor incididunt ut labore et dolore magna aliqua.&lt;/p&gt;" style="text;html=1;whiteSpace=wrap;overflow=hidden;rounded=0;fontSize=28;fillColor=#dae8fc;strokeColor=#6c8ebf;" parent="1" vertex="1">
          <mxGeometry x="50" y="82.5" width="385" height="280" as="geometry" />
        </mxCell>
        <mxCell id="g6yMPmIuiC17lhhZVRHr-5" value="&lt;font style=&quot;font-size: 15px;&quot;&gt;Hello Word !&lt;/font&gt;" style="text;html=1;align=center;verticalAlign=middle;whiteSpace=wrap;rounded=0;fontSize=32;" parent="1" vertex="1">
          <mxGeometry x="-15" y="-400" width="330" height="50" as="geometry" />
        </mxCell>
        <mxCell id="g6yMPmIuiC17lhhZVRHr-19" value="&amp;amp;Copy Desenvolvido por Lucas Costa" style="rounded=0;whiteSpace=wrap;html=1;fillColor=#dae8fc;strokeColor=#6c8ebf;" parent="1" vertex="1">
          <mxGeometry y="2010" width="890" height="60" as="geometry" />
        </mxCell>
        <mxCell id="g6yMPmIuiC17lhhZVRHr-28" value="" style="html=1;shadow=0;dashed=0;fillColor=#f5f5f5;strokeColor=#666666;fontSize=16;align=right;spacing=15;fontColor=#333333;" parent="1" vertex="1">
          <mxGeometry y="-580" width="890" height="60" as="geometry" />
        </mxCell>
        <mxCell id="g6yMPmIuiC17lhhZVRHr-29" value="" style="swimlane;shape=mxgraph.bootstrap.anchor;strokeColor=none;fillColor=none;fontColor=#0085FC;fontStyle=0;childLayout=stackLayout;horizontal=0;startSize=0;horizontalStack=1;resizeParent=1;resizeParentMax=0;resizeLast=0;collapsible=0;marginBottom=0;whiteSpace=wrap;html=1;resizeWidth=0;" parent="g6yMPmIuiC17lhhZVRHr-28" vertex="1">
          <mxGeometry y="10" width="220" height="40" as="geometry" />
        </mxCell>
        <mxCell id="g6yMPmIuiC17lhhZVRHr-31" value="Home" style="text;strokeColor=none;align=center;verticalAlign=middle;spacingLeft=10;spacingRight=10;points=[[0,0.5],[1,0.5]];portConstraint=eastwest;rotatable=0;whiteSpace=wrap;html=1;fillColor=none;fontColor=#181819;fontSize=14;" parent="g6yMPmIuiC17lhhZVRHr-29" vertex="1">
          <mxGeometry width="60" height="40" as="geometry" />
        </mxCell>
        <mxCell id="g6yMPmIuiC17lhhZVRHr-32" value="Sobre mim" style="text;strokeColor=none;align=center;verticalAlign=middle;spacingLeft=10;spacingRight=10;points=[[0,0.5],[1,0.5]];portConstraint=eastwest;rotatable=0;whiteSpace=wrap;html=1;fillColor=none;fontColor=#7C7C7D;fontSize=14;" parent="g6yMPmIuiC17lhhZVRHr-29" vertex="1">
          <mxGeometry x="60" width="90" height="40" as="geometry" />
        </mxCell>
        <mxCell id="g6yMPmIuiC17lhhZVRHr-33" value="Portifólio" style="text;strokeColor=none;align=left;verticalAlign=middle;spacingLeft=5;spacingRight=10;points=[[0,0.5],[1,0.5]];portConstraint=eastwest;rotatable=0;whiteSpace=wrap;html=1;fillColor=none;fontColor=#7C7C7D;fontSize=14;" parent="g6yMPmIuiC17lhhZVRHr-29" vertex="1">
          <mxGeometry x="150" width="70" height="40" as="geometry" />
        </mxCell>
        <mxCell id="g6yMPmIuiC17lhhZVRHr-34" value="" style="swimlane;shape=mxgraph.bootstrap.anchor;strokeColor=none;fillColor=none;fontColor=#0085FC;fontStyle=0;childLayout=stackLayout;horizontal=0;startSize=0;horizontalStack=1;resizeParent=1;resizeParentMax=0;resizeLast=0;collapsible=0;marginBottom=0;whiteSpace=wrap;html=1;resizeWidth=0;" parent="g6yMPmIuiC17lhhZVRHr-28" vertex="1">
          <mxGeometry x="220" y="10" width="160" height="40" as="geometry" />
        </mxCell>
        <mxCell id="g6yMPmIuiC17lhhZVRHr-36" value="Carreira" style="text;strokeColor=none;align=center;verticalAlign=middle;spacingLeft=10;spacingRight=10;points=[[0,0.5],[1,0.5]];portConstraint=eastwest;rotatable=0;whiteSpace=wrap;html=1;fillColor=none;fontColor=#7C7C7D;fontSize=14;" parent="g6yMPmIuiC17lhhZVRHr-34" vertex="1">
          <mxGeometry width="90" height="40" as="geometry" />
        </mxCell>
        <mxCell id="g6yMPmIuiC17lhhZVRHr-37" value="Contato" style="text;strokeColor=none;align=left;verticalAlign=middle;spacingLeft=5;spacingRight=10;points=[[0,0.5],[1,0.5]];portConstraint=eastwest;rotatable=0;whiteSpace=wrap;html=1;fillColor=none;fontColor=#7C7C7D;fontSize=14;" parent="g6yMPmIuiC17lhhZVRHr-34" vertex="1">
          <mxGeometry x="90" width="70" height="40" as="geometry" />
        </mxCell>
        <mxCell id="IuSi_ucjc667y65gIAW3-1" value="&lt;font style=&quot;font-size: 28px;&quot;&gt;Sobre mim&lt;/font&gt;" style="strokeColor=#6c8ebf;fillColor=#dae8fc;strokeWidth=1;html=1;shadow=0;dashed=0;shape=mxgraph.android.rrect;rSize=0;align=left;spacingLeft=10;fontSize=8;movable=1;resizable=1;rotatable=1;deletable=1;editable=1;locked=0;connectable=1;" parent="1" vertex="1">
          <mxGeometry x="370" y="-20" width="150" height="62.5" as="geometry" />
        </mxCell>
        <mxCell id="IuSi_ucjc667y65gIAW3-6" value="&lt;span style=&quot;font-size: 28px;&quot;&gt;Certificados&lt;/span&gt;" style="strokeColor=#6c8ebf;fillColor=#dae8fc;strokeWidth=1;html=1;shadow=0;dashed=0;shape=mxgraph.android.rrect;rSize=0;align=left;spacingLeft=10;fontSize=8;movable=1;resizable=1;rotatable=1;deletable=1;editable=1;locked=0;connectable=1;" parent="1" vertex="1">
          <mxGeometry x="360" y="540" width="180" height="60" as="geometry" />
        </mxCell>
        <mxCell id="IuSi_ucjc667y65gIAW3-8" value="&lt;font style=&quot;font-size: 28px;&quot;&gt;Contato&lt;/font&gt;" style="strokeColor=#6c8ebf;fillColor=#dae8fc;strokeWidth=1;html=1;shadow=0;dashed=0;shape=mxgraph.android.rrect;rSize=0;align=left;spacingLeft=10;fontSize=8;movable=1;resizable=1;rotatable=1;deletable=1;editable=1;locked=0;connectable=1;" parent="1" vertex="1">
          <mxGeometry x="390" y="1080" width="120" height="62.5" as="geometry" />
        </mxCell>
        <mxCell id="IuSi_ucjc667y65gIAW3-10" value="&lt;h1 style=&quot;margin-top: 0px; font-size: 28px;&quot;&gt;Heading&lt;/h1&gt;&lt;p style=&quot;font-size: 28px;&quot;&gt;Lorem ipsum dolor sit amet, consectetur adipisicing elit, sed do eiusmod tempor incididunt ut labore et dolore magna aliqua.&lt;/p&gt;" style="text;html=1;whiteSpace=wrap;overflow=hidden;rounded=0;fontSize=28;fillColor=#dae8fc;strokeColor=#6c8ebf;" parent="1" vertex="1">
          <mxGeometry x="490" y="1200" width="360" height="270" as="geometry" />
        </mxCell>
        <mxCell id="fVR2gJW3VSCEs9xHzAv6-3" value="Eu sou Lucas," style="text;html=1;align=center;verticalAlign=middle;whiteSpace=wrap;rounded=0;fontSize=32;" parent="1" vertex="1">
          <mxGeometry x="32.5" y="-340" width="360" height="50" as="geometry" />
        </mxCell>
        <mxCell id="fVR2gJW3VSCEs9xHzAv6-5" value="&lt;font style=&quot;font-size: 24px;&quot;&gt;Desenvolvedor Web front-end.&lt;/font&gt;" style="text;html=1;align=center;verticalAlign=middle;whiteSpace=wrap;rounded=0;fontSize=32;" parent="1" vertex="1">
          <mxGeometry x="92.5" y="-300" width="360" height="50" as="geometry" />
        </mxCell>
        <mxCell id="fVR2gJW3VSCEs9xHzAv6-7" value="Iframe Spotify" style="whiteSpace=wrap;html=1;aspect=fixed;" parent="1" vertex="1">
          <mxGeometry x="532.5" y="70" width="305" height="305" as="geometry" />
        </mxCell>
        <mxCell id="fVR2gJW3VSCEs9xHzAv6-8" value="&lt;font style=&quot;font-size: 28px;&quot;&gt;Onde me encontrar ?&lt;/font&gt;" style="strokeColor=#6c8ebf;fillColor=#dae8fc;strokeWidth=1;html=1;shadow=0;dashed=0;shape=mxgraph.android.rrect;rSize=0;align=left;spacingLeft=10;fontSize=8;movable=1;resizable=1;rotatable=1;deletable=1;editable=1;locked=0;connectable=1;" parent="1" vertex="1">
          <mxGeometry x="310" y="1590" width="280" height="60" as="geometry" />
        </mxCell>
        <mxCell id="fVR2gJW3VSCEs9xHzAv6-9" value="MAPA&lt;div&gt;&lt;br&gt;&lt;/div&gt;" style="text;html=1;whiteSpace=wrap;overflow=hidden;rounded=0;fontSize=28;fillColor=#dae8fc;strokeColor=#6c8ebf;" parent="1" vertex="1">
          <mxGeometry x="270" y="1680" width="360" height="270" as="geometry" />
        </mxCell>
        <mxCell id="fVR2gJW3VSCEs9xHzAv6-10" value="CERT1" style="whiteSpace=wrap;html=1;aspect=fixed;" parent="1" vertex="1">
          <mxGeometry x="113.9" y="715" width="170" height="170" as="geometry" />
        </mxCell>
        <mxCell id="fVR2gJW3VSCEs9xHzAv6-11" value="CERT2" style="whiteSpace=wrap;html=1;aspect=fixed;" parent="1" vertex="1">
          <mxGeometry x="370" y="660" width="170" height="170" as="geometry" />
        </mxCell>
        <mxCell id="fVR2gJW3VSCEs9xHzAv6-12" value="CERT3" style="whiteSpace=wrap;html=1;aspect=fixed;" parent="1" vertex="1">
          <mxGeometry x="610" y="715" width="170" height="170" as="geometry" />
        </mxCell>
        <mxCell id="fVR2gJW3VSCEs9xHzAv6-13" value="" style="shape=image;html=1;verticalAlign=top;verticalLabelPosition=bottom;labelBackgroundColor=#ffffff;imageAspect=0;aspect=fixed;image=https://cdn4.iconfinder.com/data/icons/ionicons/512/icon-social-github-128.png" parent="1" vertex="1">
          <mxGeometry x="100" y="1220" width="100" height="100" as="geometry" />
        </mxCell>
        <mxCell id="fVR2gJW3VSCEs9xHzAv6-14" value="" style="dashed=0;outlineConnect=0;html=1;align=center;labelPosition=center;verticalLabelPosition=bottom;verticalAlign=top;shape=mxgraph.weblogos.instagram;fillColor=#6FC0E4;gradientColor=#1E305B" parent="1" vertex="1">
          <mxGeometry x="113.89999999999998" y="1350" width="72.2" height="72.2" as="geometry" />
        </mxCell>
        <mxCell id="fVR2gJW3VSCEs9xHzAv6-15" value="" style="dashed=0;outlineConnect=0;html=1;align=center;labelPosition=center;verticalLabelPosition=bottom;verticalAlign=top;shape=mxgraph.webicons.linkedin;fillColor=#0095DB;gradientColor=#006391" parent="1" vertex="1">
          <mxGeometry x="249.39999999999998" y="1234.3999999999999" width="71.2" height="71.2" as="geometry" />
        </mxCell>
        <mxCell id="a2wLlvEY7IOtYXjg7Fxu-1" value="" style="shape=image;html=1;verticalAlign=top;verticalLabelPosition=bottom;labelBackgroundColor=#ffffff;imageAspect=0;aspect=fixed;image=https://cdn2.iconfinder.com/data/icons/social-media-2285/512/1_Whatsapp2_colored_svg-128.png" vertex="1" parent="1">
          <mxGeometry x="245" y="1346.1" width="80" height="80" as="geometry" />
        </mxCell>
        <mxCell id="a2wLlvEY7IOtYXjg7Fxu-2" value="FOTO" style="ellipse;whiteSpace=wrap;html=1;aspect=fixed;" vertex="1" parent="1">
          <mxGeometry x="570" y="-440" width="230" height="230" as="geometry" />
        </mxCell>
      </root>
    </mxGraphModel>
  </diagram>
</mxfile>
